<svg width="201" height="31" viewBox="0 0 201 31" fill="none" xmlns="http://www.w3.org/2000/svg">
<path d="M3.168 23H0.864C0.576 23 0.48 22.832 0.576 22.496L4.368 8.072C4.48 7.736 4.72 7.568 5.088 7.568H8.28C8.68 7.568 8.92 7.736 9 8.072L12.792 22.496C12.888 22.832 12.792 23 12.504 23H10.2C10.024 23 9.904 22.968 9.84 22.904C9.776 22.824 9.728 22.688 9.696 22.496L9.024 19.856H4.344L3.672 22.496C3.64 22.688 3.584 22.824 3.504 22.904C3.44 22.968 3.328 23 3.168 23ZM6.648 10.472L4.92 17.408H8.472L6.744 10.472H6.648ZM17.4634 23H15.4234C15.0874 23 14.9194 22.832 14.9194 22.496V8.072C14.9194 7.736 15.0874 7.568 15.4234 7.568H17.4634C17.7994 7.568 17.9674 7.736 17.9674 8.072V14.912H18.0154C18.1434 14.528 18.3914 14.032 18.7594 13.424L22.4074 8.072C22.6154 7.736 22.9274 7.568 23.3434 7.568H25.6954C25.8714 7.568 25.9754 7.624 26.0074 7.736C26.0554 7.832 26.0154 7.96 25.8874 8.12L21.3274 14.432L26.4154 22.4C26.5274 22.592 26.5434 22.744 26.4634 22.856C26.3994 22.952 26.2554 23 26.0314 23H24.2794C23.7194 23 23.3434 22.832 23.1514 22.496L19.4794 16.616L17.9674 18.392V22.496C17.9674 22.832 17.7994 23 17.4634 23ZM29.9102 23H27.6062C27.3182 23 27.2222 22.832 27.3182 22.496L31.1102 8.072C31.2222 7.736 31.4622 7.568 31.8302 7.568H35.0222C35.4222 7.568 35.6622 7.736 35.7422 8.072L39.5342 22.496C39.6302 22.832 39.5342 23 39.2462 23H36.9422C36.7662 23 36.6462 22.968 36.5822 22.904C36.5182 22.824 36.4702 22.688 36.4382 22.496L35.7662 19.856H31.0862L30.4142 22.496C30.3822 22.688 30.3262 22.824 30.2462 22.904C30.1822 22.968 30.0702 23 29.9102 23ZM33.3902 10.472L31.6622 17.408H35.2142L33.4862 10.472H33.3902ZM46.4376 23H44.4216C44.0696 23 43.8936 22.832 43.8936 22.496V10.472C43.8936 10.296 43.8056 10.208 43.6296 10.208H40.8936C40.5576 10.208 40.3896 10.04 40.3896 9.704V8.072C40.3896 7.736 40.5576 7.568 40.8936 7.568H49.9656C50.3016 7.568 50.4696 7.736 50.4696 8.072V9.704C50.4696 10.04 50.3016 10.208 49.9656 10.208H47.2296C47.0376 10.208 46.9416 10.296 46.9416 10.472V22.496C46.9416 22.832 46.7736 23 46.4376 23ZM51.9182 19.064V18.584C51.9182 18.248 52.0862 18.08 52.4222 18.08H54.4622C54.7982 18.08 54.9662 18.248 54.9662 18.584V18.776C54.9662 19.384 55.0862 19.8 55.3262 20.024C55.5662 20.248 56.0062 20.36 56.6462 20.36H57.7742C58.3982 20.36 58.8302 20.24 59.0702 20C59.3262 19.76 59.4542 19.312 59.4542 18.656V18.368C59.4542 17.904 59.2622 17.552 58.8782 17.312C58.5102 17.056 58.0462 16.904 57.4862 16.856C56.9262 16.808 56.3182 16.72 55.6622 16.592C55.0222 16.448 54.4222 16.272 53.8622 16.064C53.3022 15.84 52.8302 15.416 52.4462 14.792C52.0782 14.152 51.8942 13.336 51.8942 12.344V11.504C51.8942 10.256 52.2462 9.288 52.9502 8.6C53.6542 7.912 54.6302 7.568 55.8782 7.568H58.2782C59.5422 7.568 60.5262 7.912 61.2302 8.6C61.9342 9.288 62.2862 10.256 62.2862 11.504V11.96C62.2862 12.296 62.1182 12.464 61.7822 12.464H59.7422C59.4062 12.464 59.2382 12.296 59.2382 11.96V11.816C59.2382 11.192 59.1182 10.768 58.8782 10.544C58.6382 10.32 58.1982 10.208 57.5582 10.208H56.6222C55.9662 10.208 55.5182 10.336 55.2782 10.592C55.0542 10.832 54.9422 11.312 54.9422 12.032V12.488C54.9422 13.24 55.5982 13.672 56.9102 13.784C58.2702 13.896 59.4782 14.168 60.5342 14.6C61.0942 14.84 61.5582 15.272 61.9262 15.896C62.3102 16.504 62.5022 17.288 62.5022 18.248V19.064C62.5022 20.312 62.1502 21.28 61.4462 21.968C60.7422 22.656 59.7662 23 58.5182 23H55.9022C54.6542 23 53.6782 22.656 52.9742 21.968C52.2702 21.28 51.9182 20.312 51.9182 19.064ZM73.1357 7.568H75.1517C75.5037 7.568 75.6797 7.728 75.6797 8.048V19.088C75.6797 20.336 75.3277 21.304 74.6237 21.992C73.9357 22.664 72.9677 23 71.7197 23H69.0797C67.8157 23 66.8397 22.664 66.1517 21.992C65.4637 21.32 65.1197 20.352 65.1197 19.088V8.072C65.1197 7.736 65.2877 7.568 65.6237 7.568H67.6637C67.9997 7.568 68.1677 7.736 68.1677 8.072V18.944C68.1677 19.456 68.2717 19.824 68.4797 20.048C68.7037 20.256 69.0637 20.36 69.5597 20.36H71.2157C71.7277 20.36 72.0877 20.256 72.2957 20.048C72.5197 19.824 72.6317 19.456 72.6317 18.944V8.072C72.6317 7.736 72.7997 7.568 73.1357 7.568ZM81.2134 23H79.1734C78.8374 23 78.6694 22.832 78.6694 22.496V8.072C78.6694 7.736 78.8374 7.568 79.1734 7.568H81.2134C81.5494 7.568 81.7174 7.736 81.7174 8.072V14.912H81.7654C81.8934 14.528 82.1414 14.032 82.5094 13.424L86.1574 8.072C86.3654 7.736 86.6774 7.568 87.0934 7.568H89.4454C89.6214 7.568 89.7254 7.624 89.7574 7.736C89.8054 7.832 89.7654 7.96 89.6374 8.12L85.0774 14.432L90.1654 22.4C90.2774 22.592 90.2934 22.744 90.2134 22.856C90.1494 22.952 90.0054 23 89.7814 23H88.0294C87.4694 23 87.0934 22.832 86.9014 22.496L83.2294 16.616L81.7174 18.392V22.496C81.7174 22.832 81.5494 23 81.2134 23ZM95.2202 8.072V22.496C95.2202 22.832 95.0522 23 94.7162 23H92.6762C92.3402 23 92.1722 22.832 92.1722 22.496V8.072C92.1722 7.736 92.3402 7.568 92.6762 7.568H94.7162C95.0522 7.568 95.2202 7.736 95.2202 8.072Z" fill="#09090A"/>
<rect x="101" width="5" height="31" fill="#F7DD43"/>
<path d="M114.018 19H112.058C111.853 19 111.736 18.902 111.708 18.706L110.21 10.292C110.182 10.096 110.28 9.998 110.504 9.998H111.96C112.175 9.998 112.287 10.096 112.296 10.292L113.108 17.194H113.206L114.55 10.25C114.578 10.082 114.676 9.998 114.844 9.998H116.412C116.589 9.998 116.692 10.0773 116.72 10.236L118.092 17.194H118.204L119.002 10.306C119.011 10.1007 119.123 9.998 119.338 9.998H120.794C121.018 9.998 121.116 10.1007 121.088 10.306L119.576 18.706C119.548 18.902 119.441 19 119.254 19H117.28C117.084 19 116.972 18.902 116.944 18.706L115.684 12.14H115.628L114.354 18.706C114.317 18.902 114.205 19 114.018 19ZM125.479 19H124.233C123.496 19 122.926 18.804 122.525 18.412C122.124 18.02 121.923 17.4553 121.923 16.718V14.142C121.923 13.4047 122.124 12.84 122.525 12.448C122.926 12.056 123.496 11.86 124.233 11.86H125.479C126.207 11.86 126.772 12.0607 127.173 12.462C127.584 12.854 127.789 13.414 127.789 14.142V16.718C127.789 17.446 127.584 18.0107 127.173 18.412C126.772 18.804 126.207 19 125.479 19ZM124.499 17.474H125.213C125.512 17.474 125.722 17.4133 125.843 17.292C125.974 17.1707 126.039 16.9607 126.039 16.662V14.198C126.039 13.8993 125.974 13.6893 125.843 13.568C125.722 13.4467 125.512 13.386 125.213 13.386H124.499C124.2 13.386 123.99 13.4467 123.869 13.568C123.748 13.6893 123.687 13.8993 123.687 14.198V16.662C123.687 16.9607 123.748 17.1707 123.869 17.292C123.99 17.4133 124.2 17.474 124.499 17.474ZM130.67 19H129.48C129.284 19 129.186 18.902 129.186 18.706V12.154C129.186 11.958 129.284 11.86 129.48 11.86H130.67C130.866 11.86 130.964 11.958 130.964 12.154V12.63H131.02C131.123 12.378 131.305 12.1867 131.566 12.056C131.827 11.9253 132.103 11.86 132.392 11.86H132.896C133.083 11.86 133.176 11.958 133.176 12.154V13.12C133.176 13.232 133.153 13.3113 133.106 13.358C133.069 13.3953 132.999 13.4093 132.896 13.4H131.93C131.286 13.4 130.964 13.764 130.964 14.492V18.706C130.964 18.902 130.866 19 130.67 19ZM135.621 19H134.431C134.235 19 134.137 18.902 134.137 18.706V9.452C134.137 9.256 134.235 9.158 134.431 9.158H135.621C135.817 9.158 135.915 9.256 135.915 9.452V18.706C135.915 18.902 135.817 19 135.621 19ZM140.144 19H139.57C138.851 19 138.305 18.804 137.932 18.412C137.568 18.02 137.386 17.4553 137.386 16.718V14.142C137.386 13.4047 137.568 12.84 137.932 12.448C138.305 12.056 138.851 11.86 139.57 11.86H140.144C140.433 11.86 140.709 11.9253 140.97 12.056C141.231 12.1773 141.413 12.364 141.516 12.616H141.572V9.452C141.572 9.256 141.67 9.158 141.866 9.158H143.056C143.252 9.158 143.35 9.256 143.35 9.452V18.706C143.35 18.902 143.252 19 143.056 19H141.866C141.67 19 141.572 18.902 141.572 18.706V18.244H141.516C141.413 18.496 141.231 18.6873 140.97 18.818C140.709 18.9393 140.433 19 140.144 19ZM141.572 16.396V14.464C141.572 13.7547 141.25 13.4 140.606 13.4H139.976C139.677 13.4 139.467 13.4653 139.346 13.596C139.225 13.7173 139.164 13.9273 139.164 14.226V16.634C139.164 16.9327 139.225 17.1473 139.346 17.278C139.467 17.3993 139.677 17.46 139.976 17.46H140.606C141.25 17.46 141.572 17.1053 141.572 16.396ZM151.807 19H150.281C149.544 19 148.975 18.804 148.573 18.412C148.172 18.02 147.971 17.4553 147.971 16.718V12.28C147.971 11.5427 148.172 10.978 148.573 10.586C148.975 10.194 149.544 9.998 150.281 9.998H151.807C152.535 9.998 153.1 10.1987 153.501 10.6C153.912 10.992 154.117 11.552 154.117 12.28V12.938C154.117 13.1433 154.015 13.246 153.809 13.246H152.633C152.437 13.246 152.339 13.1433 152.339 12.938V12.364C152.339 12.0653 152.274 11.8553 152.143 11.734C152.022 11.6033 151.812 11.538 151.513 11.538H150.561C150.272 11.538 150.062 11.6033 149.931 11.734C149.81 11.8553 149.749 12.0653 149.749 12.364V16.634C149.749 16.9327 149.81 17.1473 149.931 17.278C150.062 17.3993 150.272 17.46 150.561 17.46H151.513C151.812 17.46 152.022 17.3993 152.143 17.278C152.274 17.1473 152.339 16.9327 152.339 16.634V16.06C152.339 15.8547 152.437 15.752 152.633 15.752H153.809C154.015 15.752 154.117 15.8547 154.117 16.06V16.718C154.117 17.446 153.912 18.0107 153.501 18.412C153.1 18.804 152.535 19 151.807 19ZM158.08 19H157.618C156.9 19 156.354 18.804 155.98 18.412C155.616 18.02 155.434 17.4553 155.434 16.718V12.154C155.434 11.958 155.532 11.86 155.728 11.86H156.918C157.114 11.86 157.212 11.958 157.212 12.154V16.634C157.212 16.9327 157.273 17.1473 157.394 17.278C157.525 17.3993 157.735 17.46 158.024 17.46H158.542C159.186 17.46 159.508 17.1053 159.508 16.396V12.154C159.508 11.958 159.606 11.86 159.802 11.86H160.978C161.184 11.86 161.286 11.958 161.286 12.154V18.706C161.286 18.902 161.184 19 160.978 19H159.802C159.606 19 159.508 18.902 159.508 18.706V18.244H159.452C159.35 18.496 159.168 18.6873 158.906 18.818C158.645 18.9393 158.37 19 158.08 19ZM164.317 20.904H163.127C162.931 20.904 162.833 20.8107 162.833 20.624V12.154C162.833 11.958 162.931 11.86 163.127 11.86H164.317C164.513 11.86 164.611 11.958 164.611 12.154V12.616H164.667C164.769 12.364 164.951 12.1773 165.213 12.056C165.474 11.9253 165.749 11.86 166.039 11.86H166.613C167.331 11.86 167.873 12.056 168.237 12.448C168.61 12.84 168.797 13.4047 168.797 14.142V16.718C168.797 17.4553 168.61 18.02 168.237 18.412C167.873 18.804 167.331 19 166.613 19H166.039C165.749 19 165.474 18.9393 165.213 18.818C164.951 18.6873 164.769 18.496 164.667 18.244H164.611V20.624C164.611 20.8107 164.513 20.904 164.317 20.904ZM165.577 17.46H166.193C166.491 17.46 166.701 17.3993 166.823 17.278C166.953 17.1473 167.019 16.9327 167.019 16.634V14.226C167.019 13.9273 166.953 13.7173 166.823 13.596C166.701 13.4653 166.491 13.4 166.193 13.4H165.577C164.933 13.4 164.611 13.7547 164.611 14.464V16.396C164.611 17.1053 164.933 17.46 165.577 17.46ZM173.166 18.706V17.376C173.166 16.844 173.394 16.3913 173.852 16.018L176.428 13.834C176.848 13.4887 177.058 13.1153 177.058 12.714V12.294C177.058 12.0047 176.988 11.7993 176.848 11.678C176.717 11.5473 176.498 11.482 176.19 11.482H175.7C175.401 11.482 175.191 11.5473 175.07 11.678C174.948 11.7993 174.888 12.0047 174.888 12.294V12.742C174.888 12.9473 174.79 13.05 174.594 13.05H173.404C173.208 13.05 173.11 12.9473 173.11 12.742V12.266C173.11 11.538 173.31 10.978 173.712 10.586C174.113 10.194 174.682 9.998 175.42 9.998H176.484C177.221 9.998 177.79 10.194 178.192 10.586C178.593 10.978 178.794 11.538 178.794 12.266V12.826C178.794 13.554 178.514 14.156 177.954 14.632L175.322 16.872C175.21 16.9747 175.154 17.0867 175.154 17.208V17.432H178.5C178.696 17.432 178.794 17.53 178.794 17.726V18.706C178.794 18.902 178.696 19 178.5 19H173.46C173.264 19 173.166 18.902 173.166 18.706ZM182.758 17.46H183.584C183.883 17.46 184.093 17.3993 184.214 17.278C184.335 17.1473 184.396 16.9327 184.396 16.634V12.364C184.396 12.0653 184.335 11.8553 184.214 11.734C184.093 11.6033 183.883 11.538 183.584 11.538H182.758C182.459 11.538 182.249 11.6033 182.128 11.734C182.007 11.8553 181.946 12.0653 181.946 12.364V16.634C181.946 16.9327 182.007 17.1473 182.128 17.278C182.249 17.3993 182.459 17.46 182.758 17.46ZM183.864 19H182.464C181.727 19 181.157 18.804 180.756 18.412C180.355 18.02 180.154 17.4553 180.154 16.718V12.28C180.154 11.5427 180.355 10.978 180.756 10.586C181.157 10.194 181.727 9.998 182.464 9.998H183.864C184.592 9.998 185.157 10.1987 185.558 10.6C185.959 10.992 186.16 11.552 186.16 12.28V16.718C186.16 17.446 185.959 18.0107 185.558 18.412C185.157 18.804 184.592 19 183.864 19ZM187.576 18.706V17.376C187.576 16.844 187.805 16.3913 188.262 16.018L190.838 13.834C191.258 13.4887 191.468 13.1153 191.468 12.714V12.294C191.468 12.0047 191.398 11.7993 191.258 11.678C191.127 11.5473 190.908 11.482 190.6 11.482H190.11C189.811 11.482 189.601 11.5473 189.48 11.678C189.359 11.7993 189.298 12.0047 189.298 12.294V12.742C189.298 12.9473 189.2 13.05 189.004 13.05H187.814C187.618 13.05 187.52 12.9473 187.52 12.742V12.266C187.52 11.538 187.721 10.978 188.122 10.586C188.523 10.194 189.093 9.998 189.83 9.998H190.894C191.631 9.998 192.201 10.194 192.602 10.586C193.003 10.978 193.204 11.538 193.204 12.266V12.826C193.204 13.554 192.924 14.156 192.364 14.632L189.732 16.872C189.62 16.9747 189.564 17.0867 189.564 17.208V17.432H192.91C193.106 17.432 193.204 17.53 193.204 17.726V18.706C193.204 18.902 193.106 19 192.91 19H187.87C187.674 19 187.576 18.902 187.576 18.706ZM194.48 18.706V17.376C194.48 16.844 194.709 16.3913 195.166 16.018L197.742 13.834C198.162 13.4887 198.372 13.1153 198.372 12.714V12.294C198.372 12.0047 198.302 11.7993 198.162 11.678C198.032 11.5473 197.812 11.482 197.504 11.482H197.014C196.716 11.482 196.506 11.5473 196.384 11.678C196.263 11.7993 196.202 12.0047 196.202 12.294V12.742C196.202 12.9473 196.104 13.05 195.908 13.05H194.718C194.522 13.05 194.424 12.9473 194.424 12.742V12.266C194.424 11.538 194.625 10.978 195.026 10.586C195.428 10.194 195.997 9.998 196.734 9.998H197.798C198.536 9.998 199.105 10.194 199.506 10.586C199.908 10.978 200.108 11.538 200.108 12.266V12.826C200.108 13.554 199.828 14.156 199.268 14.632L196.636 16.872C196.524 16.9747 196.468 17.0867 196.468 17.208V17.432H199.814C200.01 17.432 200.108 17.53 200.108 17.726V18.706C200.108 18.902 200.01 19 199.814 19H194.774C194.578 19 194.48 18.902 194.48 18.706Z" fill="#202024"/>
</svg>
