<svg width="202" height="32" viewBox="0 0 202 32" fill="none" xmlns="http://www.w3.org/2000/svg">
<path d="M3.668 23.5H1.364C1.076 23.5 0.98 23.332 1.076 22.996L4.868 8.572C4.98 8.236 5.22 8.068 5.588 8.068H8.78C9.18 8.068 9.42 8.236 9.5 8.572L13.292 22.996C13.388 23.332 13.292 23.5 13.004 23.5H10.7C10.524 23.5 10.404 23.468 10.34 23.404C10.276 23.324 10.228 23.188 10.196 22.996L9.524 20.356H4.844L4.172 22.996C4.14 23.188 4.084 23.324 4.004 23.404C3.94 23.468 3.828 23.5 3.668 23.5ZM7.148 10.972L5.42 17.908H8.972L7.244 10.972H7.148ZM17.9634 23.5H15.9234C15.5874 23.5 15.4194 23.332 15.4194 22.996V8.572C15.4194 8.236 15.5874 8.068 15.9234 8.068H17.9634C18.2994 8.068 18.4674 8.236 18.4674 8.572V15.412H18.5154C18.6434 15.028 18.8914 14.532 19.2594 13.924L22.9074 8.572C23.1154 8.236 23.4274 8.068 23.8434 8.068H26.1954C26.3714 8.068 26.4754 8.124 26.5074 8.236C26.5554 8.332 26.5154 8.46 26.3874 8.62L21.8274 14.932L26.9154 22.9C27.0274 23.092 27.0434 23.244 26.9634 23.356C26.8994 23.452 26.7554 23.5 26.5314 23.5H24.7794C24.2194 23.5 23.8434 23.332 23.6514 22.996L19.9794 17.116L18.4674 18.892V22.996C18.4674 23.332 18.2994 23.5 17.9634 23.5ZM30.4102 23.5H28.1062C27.8182 23.5 27.7222 23.332 27.8182 22.996L31.6102 8.572C31.7222 8.236 31.9622 8.068 32.3302 8.068H35.5222C35.9222 8.068 36.1622 8.236 36.2422 8.572L40.0342 22.996C40.1302 23.332 40.0342 23.5 39.7462 23.5H37.4422C37.2662 23.5 37.1462 23.468 37.0822 23.404C37.0182 23.324 36.9702 23.188 36.9382 22.996L36.2662 20.356H31.5862L30.9142 22.996C30.8822 23.188 30.8262 23.324 30.7462 23.404C30.6822 23.468 30.5702 23.5 30.4102 23.5ZM33.8902 10.972L32.1622 17.908H35.7142L33.9862 10.972H33.8902ZM46.9376 23.5H44.9216C44.5696 23.5 44.3936 23.332 44.3936 22.996V10.972C44.3936 10.796 44.3056 10.708 44.1296 10.708H41.3936C41.0576 10.708 40.8896 10.54 40.8896 10.204V8.572C40.8896 8.236 41.0576 8.068 41.3936 8.068H50.4656C50.8016 8.068 50.9696 8.236 50.9696 8.572V10.204C50.9696 10.54 50.8016 10.708 50.4656 10.708H47.7296C47.5376 10.708 47.4416 10.796 47.4416 10.972V22.996C47.4416 23.332 47.2736 23.5 46.9376 23.5ZM52.4182 19.564V19.084C52.4182 18.748 52.5862 18.58 52.9222 18.58H54.9622C55.2982 18.58 55.4662 18.748 55.4662 19.084V19.276C55.4662 19.884 55.5862 20.3 55.8262 20.524C56.0662 20.748 56.5062 20.86 57.1462 20.86H58.2742C58.8982 20.86 59.3302 20.74 59.5702 20.5C59.8262 20.26 59.9542 19.812 59.9542 19.156V18.868C59.9542 18.404 59.7622 18.052 59.3782 17.812C59.0102 17.556 58.5462 17.404 57.9862 17.356C57.4262 17.308 56.8182 17.22 56.1622 17.092C55.5222 16.948 54.9222 16.772 54.3622 16.564C53.8022 16.34 53.3302 15.916 52.9462 15.292C52.5782 14.652 52.3942 13.836 52.3942 12.844V12.004C52.3942 10.756 52.7462 9.788 53.4502 9.1C54.1542 8.412 55.1302 8.068 56.3782 8.068H58.7782C60.0422 8.068 61.0262 8.412 61.7302 9.1C62.4342 9.788 62.7862 10.756 62.7862 12.004V12.46C62.7862 12.796 62.6182 12.964 62.2822 12.964H60.2422C59.9062 12.964 59.7382 12.796 59.7382 12.46V12.316C59.7382 11.692 59.6182 11.268 59.3782 11.044C59.1382 10.82 58.6982 10.708 58.0582 10.708H57.1222C56.4662 10.708 56.0182 10.836 55.7782 11.092C55.5542 11.332 55.4422 11.812 55.4422 12.532V12.988C55.4422 13.74 56.0982 14.172 57.4102 14.284C58.7702 14.396 59.9782 14.668 61.0342 15.1C61.5942 15.34 62.0582 15.772 62.4262 16.396C62.8102 17.004 63.0022 17.788 63.0022 18.748V19.564C63.0022 20.812 62.6502 21.78 61.9462 22.468C61.2422 23.156 60.2662 23.5 59.0182 23.5H56.4022C55.1542 23.5 54.1782 23.156 53.4742 22.468C52.7702 21.78 52.4182 20.812 52.4182 19.564ZM73.6357 8.068H75.6517C76.0037 8.068 76.1797 8.228 76.1797 8.548V19.588C76.1797 20.836 75.8277 21.804 75.1237 22.492C74.4357 23.164 73.4677 23.5 72.2197 23.5H69.5797C68.3157 23.5 67.3397 23.164 66.6517 22.492C65.9637 21.82 65.6197 20.852 65.6197 19.588V8.572C65.6197 8.236 65.7877 8.068 66.1237 8.068H68.1637C68.4997 8.068 68.6677 8.236 68.6677 8.572V19.444C68.6677 19.956 68.7717 20.324 68.9797 20.548C69.2037 20.756 69.5637 20.86 70.0597 20.86H71.7157C72.2277 20.86 72.5877 20.756 72.7957 20.548C73.0197 20.324 73.1317 19.956 73.1317 19.444V8.572C73.1317 8.236 73.2997 8.068 73.6357 8.068ZM81.7134 23.5H79.6734C79.3374 23.5 79.1694 23.332 79.1694 22.996V8.572C79.1694 8.236 79.3374 8.068 79.6734 8.068H81.7134C82.0494 8.068 82.2174 8.236 82.2174 8.572V15.412H82.2654C82.3934 15.028 82.6414 14.532 83.0094 13.924L86.6574 8.572C86.8654 8.236 87.1774 8.068 87.5934 8.068H89.9454C90.1214 8.068 90.2254 8.124 90.2574 8.236C90.3054 8.332 90.2654 8.46 90.1374 8.62L85.5774 14.932L90.6654 22.9C90.7774 23.092 90.7934 23.244 90.7134 23.356C90.6494 23.452 90.5054 23.5 90.2814 23.5H88.5294C87.9694 23.5 87.5934 23.332 87.4014 22.996L83.7294 17.116L82.2174 18.892V22.996C82.2174 23.332 82.0494 23.5 81.7134 23.5ZM95.7202 8.572V22.996C95.7202 23.332 95.5522 23.5 95.2162 23.5H93.1762C92.8402 23.5 92.6722 23.332 92.6722 22.996V8.572C92.6722 8.236 92.8402 8.068 93.1762 8.068H95.2162C95.5522 8.068 95.7202 8.236 95.7202 8.572Z" fill="#E1E1E6"/>
<rect x="101.5" y="0.5" width="5" height="31" fill="#F7DD43"/>
<path d="M114.518 19.5H112.558C112.353 19.5 112.236 19.402 112.208 19.206L110.71 10.792C110.682 10.596 110.78 10.498 111.004 10.498H112.46C112.675 10.498 112.787 10.596 112.796 10.792L113.608 17.694H113.706L115.05 10.75C115.078 10.582 115.176 10.498 115.344 10.498H116.912C117.089 10.498 117.192 10.5773 117.22 10.736L118.592 17.694H118.704L119.502 10.806C119.511 10.6007 119.623 10.498 119.838 10.498H121.294C121.518 10.498 121.616 10.6007 121.588 10.806L120.076 19.206C120.048 19.402 119.941 19.5 119.754 19.5H117.78C117.584 19.5 117.472 19.402 117.444 19.206L116.184 12.64H116.128L114.854 19.206C114.817 19.402 114.705 19.5 114.518 19.5ZM125.979 19.5H124.733C123.996 19.5 123.426 19.304 123.025 18.912C122.624 18.52 122.423 17.9553 122.423 17.218V14.642C122.423 13.9047 122.624 13.34 123.025 12.948C123.426 12.556 123.996 12.36 124.733 12.36H125.979C126.707 12.36 127.272 12.5607 127.673 12.962C128.084 13.354 128.289 13.914 128.289 14.642V17.218C128.289 17.946 128.084 18.5107 127.673 18.912C127.272 19.304 126.707 19.5 125.979 19.5ZM124.999 17.974H125.713C126.012 17.974 126.222 17.9133 126.343 17.792C126.474 17.6707 126.539 17.4607 126.539 17.162V14.698C126.539 14.3993 126.474 14.1893 126.343 14.068C126.222 13.9467 126.012 13.886 125.713 13.886H124.999C124.7 13.886 124.49 13.9467 124.369 14.068C124.248 14.1893 124.187 14.3993 124.187 14.698V17.162C124.187 17.4607 124.248 17.6707 124.369 17.792C124.49 17.9133 124.7 17.974 124.999 17.974ZM131.17 19.5H129.98C129.784 19.5 129.686 19.402 129.686 19.206V12.654C129.686 12.458 129.784 12.36 129.98 12.36H131.17C131.366 12.36 131.464 12.458 131.464 12.654V13.13H131.52C131.623 12.878 131.805 12.6867 132.066 12.556C132.327 12.4253 132.603 12.36 132.892 12.36H133.396C133.583 12.36 133.676 12.458 133.676 12.654V13.62C133.676 13.732 133.653 13.8113 133.606 13.858C133.569 13.8953 133.499 13.9093 133.396 13.9H132.43C131.786 13.9 131.464 14.264 131.464 14.992V19.206C131.464 19.402 131.366 19.5 131.17 19.5ZM136.121 19.5H134.931C134.735 19.5 134.637 19.402 134.637 19.206V9.952C134.637 9.756 134.735 9.658 134.931 9.658H136.121C136.317 9.658 136.415 9.756 136.415 9.952V19.206C136.415 19.402 136.317 19.5 136.121 19.5ZM140.644 19.5H140.07C139.351 19.5 138.805 19.304 138.432 18.912C138.068 18.52 137.886 17.9553 137.886 17.218V14.642C137.886 13.9047 138.068 13.34 138.432 12.948C138.805 12.556 139.351 12.36 140.07 12.36H140.644C140.933 12.36 141.209 12.4253 141.47 12.556C141.731 12.6773 141.913 12.864 142.016 13.116H142.072V9.952C142.072 9.756 142.17 9.658 142.366 9.658H143.556C143.752 9.658 143.85 9.756 143.85 9.952V19.206C143.85 19.402 143.752 19.5 143.556 19.5H142.366C142.17 19.5 142.072 19.402 142.072 19.206V18.744H142.016C141.913 18.996 141.731 19.1873 141.47 19.318C141.209 19.4393 140.933 19.5 140.644 19.5ZM142.072 16.896V14.964C142.072 14.2547 141.75 13.9 141.106 13.9H140.476C140.177 13.9 139.967 13.9653 139.846 14.096C139.725 14.2173 139.664 14.4273 139.664 14.726V17.134C139.664 17.4327 139.725 17.6473 139.846 17.778C139.967 17.8993 140.177 17.96 140.476 17.96H141.106C141.75 17.96 142.072 17.6053 142.072 16.896ZM152.307 19.5H150.781C150.044 19.5 149.475 19.304 149.073 18.912C148.672 18.52 148.471 17.9553 148.471 17.218V12.78C148.471 12.0427 148.672 11.478 149.073 11.086C149.475 10.694 150.044 10.498 150.781 10.498H152.307C153.035 10.498 153.6 10.6987 154.001 11.1C154.412 11.492 154.617 12.052 154.617 12.78V13.438C154.617 13.6433 154.515 13.746 154.309 13.746H153.133C152.937 13.746 152.839 13.6433 152.839 13.438V12.864C152.839 12.5653 152.774 12.3553 152.643 12.234C152.522 12.1033 152.312 12.038 152.013 12.038H151.061C150.772 12.038 150.562 12.1033 150.431 12.234C150.31 12.3553 150.249 12.5653 150.249 12.864V17.134C150.249 17.4327 150.31 17.6473 150.431 17.778C150.562 17.8993 150.772 17.96 151.061 17.96H152.013C152.312 17.96 152.522 17.8993 152.643 17.778C152.774 17.6473 152.839 17.4327 152.839 17.134V16.56C152.839 16.3547 152.937 16.252 153.133 16.252H154.309C154.515 16.252 154.617 16.3547 154.617 16.56V17.218C154.617 17.946 154.412 18.5107 154.001 18.912C153.6 19.304 153.035 19.5 152.307 19.5ZM158.58 19.5H158.118C157.4 19.5 156.854 19.304 156.48 18.912C156.116 18.52 155.934 17.9553 155.934 17.218V12.654C155.934 12.458 156.032 12.36 156.228 12.36H157.418C157.614 12.36 157.712 12.458 157.712 12.654V17.134C157.712 17.4327 157.773 17.6473 157.894 17.778C158.025 17.8993 158.235 17.96 158.524 17.96H159.042C159.686 17.96 160.008 17.6053 160.008 16.896V12.654C160.008 12.458 160.106 12.36 160.302 12.36H161.478C161.684 12.36 161.786 12.458 161.786 12.654V19.206C161.786 19.402 161.684 19.5 161.478 19.5H160.302C160.106 19.5 160.008 19.402 160.008 19.206V18.744H159.952C159.85 18.996 159.668 19.1873 159.406 19.318C159.145 19.4393 158.87 19.5 158.58 19.5ZM164.817 21.404H163.627C163.431 21.404 163.333 21.3107 163.333 21.124V12.654C163.333 12.458 163.431 12.36 163.627 12.36H164.817C165.013 12.36 165.111 12.458 165.111 12.654V13.116H165.167C165.269 12.864 165.451 12.6773 165.713 12.556C165.974 12.4253 166.249 12.36 166.539 12.36H167.113C167.831 12.36 168.373 12.556 168.737 12.948C169.11 13.34 169.297 13.9047 169.297 14.642V17.218C169.297 17.9553 169.11 18.52 168.737 18.912C168.373 19.304 167.831 19.5 167.113 19.5H166.539C166.249 19.5 165.974 19.4393 165.713 19.318C165.451 19.1873 165.269 18.996 165.167 18.744H165.111V21.124C165.111 21.3107 165.013 21.404 164.817 21.404ZM166.077 17.96H166.693C166.991 17.96 167.201 17.8993 167.323 17.778C167.453 17.6473 167.519 17.4327 167.519 17.134V14.726C167.519 14.4273 167.453 14.2173 167.323 14.096C167.201 13.9653 166.991 13.9 166.693 13.9H166.077C165.433 13.9 165.111 14.2547 165.111 14.964V16.896C165.111 17.6053 165.433 17.96 166.077 17.96ZM173.666 19.206V17.876C173.666 17.344 173.894 16.8913 174.352 16.518L176.928 14.334C177.348 13.9887 177.558 13.6153 177.558 13.214V12.794C177.558 12.5047 177.488 12.2993 177.348 12.178C177.217 12.0473 176.998 11.982 176.69 11.982H176.2C175.901 11.982 175.691 12.0473 175.57 12.178C175.448 12.2993 175.388 12.5047 175.388 12.794V13.242C175.388 13.4473 175.29 13.55 175.094 13.55H173.904C173.708 13.55 173.61 13.4473 173.61 13.242V12.766C173.61 12.038 173.81 11.478 174.212 11.086C174.613 10.694 175.182 10.498 175.92 10.498H176.984C177.721 10.498 178.29 10.694 178.692 11.086C179.093 11.478 179.294 12.038 179.294 12.766V13.326C179.294 14.054 179.014 14.656 178.454 15.132L175.822 17.372C175.71 17.4747 175.654 17.5867 175.654 17.708V17.932H179C179.196 17.932 179.294 18.03 179.294 18.226V19.206C179.294 19.402 179.196 19.5 179 19.5H173.96C173.764 19.5 173.666 19.402 173.666 19.206ZM183.258 17.96H184.084C184.383 17.96 184.593 17.8993 184.714 17.778C184.835 17.6473 184.896 17.4327 184.896 17.134V12.864C184.896 12.5653 184.835 12.3553 184.714 12.234C184.593 12.1033 184.383 12.038 184.084 12.038H183.258C182.959 12.038 182.749 12.1033 182.628 12.234C182.507 12.3553 182.446 12.5653 182.446 12.864V17.134C182.446 17.4327 182.507 17.6473 182.628 17.778C182.749 17.8993 182.959 17.96 183.258 17.96ZM184.364 19.5H182.964C182.227 19.5 181.657 19.304 181.256 18.912C180.855 18.52 180.654 17.9553 180.654 17.218V12.78C180.654 12.0427 180.855 11.478 181.256 11.086C181.657 10.694 182.227 10.498 182.964 10.498H184.364C185.092 10.498 185.657 10.6987 186.058 11.1C186.459 11.492 186.66 12.052 186.66 12.78V17.218C186.66 17.946 186.459 18.5107 186.058 18.912C185.657 19.304 185.092 19.5 184.364 19.5ZM188.076 19.206V17.876C188.076 17.344 188.305 16.8913 188.762 16.518L191.338 14.334C191.758 13.9887 191.968 13.6153 191.968 13.214V12.794C191.968 12.5047 191.898 12.2993 191.758 12.178C191.627 12.0473 191.408 11.982 191.1 11.982H190.61C190.311 11.982 190.101 12.0473 189.98 12.178C189.859 12.2993 189.798 12.5047 189.798 12.794V13.242C189.798 13.4473 189.7 13.55 189.504 13.55H188.314C188.118 13.55 188.02 13.4473 188.02 13.242V12.766C188.02 12.038 188.221 11.478 188.622 11.086C189.023 10.694 189.593 10.498 190.33 10.498H191.394C192.131 10.498 192.701 10.694 193.102 11.086C193.503 11.478 193.704 12.038 193.704 12.766V13.326C193.704 14.054 193.424 14.656 192.864 15.132L190.232 17.372C190.12 17.4747 190.064 17.5867 190.064 17.708V17.932H193.41C193.606 17.932 193.704 18.03 193.704 18.226V19.206C193.704 19.402 193.606 19.5 193.41 19.5H188.37C188.174 19.5 188.076 19.402 188.076 19.206ZM194.98 19.206V17.876C194.98 17.344 195.209 16.8913 195.666 16.518L198.242 14.334C198.662 13.9887 198.872 13.6153 198.872 13.214V12.794C198.872 12.5047 198.802 12.2993 198.662 12.178C198.532 12.0473 198.312 11.982 198.004 11.982H197.514C197.216 11.982 197.006 12.0473 196.884 12.178C196.763 12.2993 196.702 12.5047 196.702 12.794V13.242C196.702 13.4473 196.604 13.55 196.408 13.55H195.218C195.022 13.55 194.924 13.4473 194.924 13.242V12.766C194.924 12.038 195.125 11.478 195.526 11.086C195.928 10.694 196.497 10.498 197.234 10.498H198.298C199.036 10.498 199.605 10.694 200.006 11.086C200.408 11.478 200.608 12.038 200.608 12.766V13.326C200.608 14.054 200.328 14.656 199.768 15.132L197.136 17.372C197.024 17.4747 196.968 17.5867 196.968 17.708V17.932H200.314C200.51 17.932 200.608 18.03 200.608 18.226V19.206C200.608 19.402 200.51 19.5 200.314 19.5H195.274C195.078 19.5 194.98 19.402 194.98 19.206Z" fill="#8D8D99"/>
</svg>
